<svg width="1892" height="283" viewBox="0 0 1892 283" fill="none" xmlns="http://www.w3.org/2000/svg">
<path d="M711.61 25.43C691.75 14.4767 668.103 9 640.67 9H553.3V267.49H640.67C668.103 267.49 691.75 262.077 711.61 251.25C730.997 240.875 746.932 225.064 757.46 205.76C768.127 186.26 773.48 163.757 773.52 138.25C773.56 112.743 768.207 90.3 757.46 70.92C746.863 51.6672 730.946 35.8743 711.61 25.43ZM714.86 181.93C708.555 194.376 698.517 204.54 686.15 211C673.383 217.853 657.5 221.28 638.5 221.28H602V55.21H638.5C657.506 55.21 673.39 58.64 686.15 65.5C698.477 71.9255 708.507 82.0156 714.86 94.38C721.226 106.78 724.413 121.403 724.42 138.25C724.42 154.85 721.233 169.41 714.86 181.93Z" fill="#1E1E1E"/>
<path d="M941.4 90.2301C927.914 81.8101 911.304 77.6001 891.57 77.6001C873.277 77.6001 857.034 82.1101 842.84 91.1301C828.753 100.032 817.19 112.404 809.26 127.06C801.082 141.991 796.861 158.767 797 175.79C797 194.597 801.147 211.333 809.44 226C817.515 240.453 829.373 252.435 843.74 260.66C858.3 269.08 874.847 273.29 893.38 273.29C913.834 273.29 931.044 268.897 945.01 260.11C959.135 251.149 970.798 238.802 978.94 224.19L940.67 205.4C936.256 212.956 930.081 219.334 922.67 223.99C914.97 228.93 905.464 231.397 894.15 231.39C884.99 231.514 875.961 229.209 867.98 224.71C860.034 220.138 853.576 213.371 849.38 205.22C846.398 199.398 844.427 193.112 843.55 186.63H981.55C981.79 185.42 982.03 183.44 982.27 180.63C982.51 177.82 982.63 174.55 982.63 170.7C982.63 153.613 979.14 138.03 972.16 123.95C965.294 110.033 954.63 98.3427 941.4 90.2301ZM845.34 153.05C846.256 149.756 847.471 146.553 848.97 143.48C852.991 135.308 859.171 128.391 866.84 123.48C874.33 118.691 883.051 116.183 891.94 116.26C898.304 116.144 904.627 117.31 910.53 119.69C915.653 121.786 920.36 124.78 924.43 128.53C928.116 131.932 931.164 135.965 933.43 140.44C935.482 144.364 936.711 148.665 937.04 153.08L845.34 153.05Z" fill="#1E1E1E"/>
<path d="M1087.11 203.23H1084.22L1037.65 83.3701H983.85L1061.84 267.49H1108.77L1187.47 83.3701H1134.4L1087.11 203.23Z" fill="#1E1E1E"/>
<path d="M1210.75 267.49H1259.49V164.24H1363.11V118.03H1259.49V55.21H1374.66V9H1210.75V267.49Z" fill="#1E1E1E"/>
<path d="M1533.33 90.2301C1519.85 81.8101 1503.24 77.6001 1483.51 77.6001C1465.21 77.6001 1448.96 82.1101 1434.77 91.1301C1420.68 100.032 1409.12 112.404 1401.19 127.06C1393.01 141.99 1388.78 158.766 1388.92 175.79C1388.92 194.57 1393.07 211.3 1401.37 225.98C1409.45 240.429 1421.31 252.409 1435.67 260.64C1450.23 269.06 1466.78 273.27 1485.31 273.27C1505.77 273.27 1522.98 268.877 1536.94 260.09C1551.07 251.126 1562.73 238.78 1570.88 224.17L1532.61 205.4C1528.18 212.964 1521.98 219.345 1514.55 224C1506.85 228.94 1497.34 231.407 1486.03 231.4C1476.87 231.523 1467.84 229.219 1459.86 224.72C1451.92 220.145 1445.46 213.378 1441.27 205.23C1438.28 199.409 1436.31 193.123 1435.43 186.64H1573.43C1573.67 185.43 1573.91 183.45 1574.15 180.64C1574.39 177.83 1574.52 174.56 1574.52 170.71C1574.52 153.623 1571.03 138.04 1564.04 123.96C1557.19 110.046 1546.54 98.3527 1533.33 90.2301ZM1437.27 153.05C1438.18 149.754 1439.4 146.551 1440.91 143.48C1444.92 135.304 1451.11 128.386 1458.78 123.48C1466.27 118.69 1474.98 116.182 1483.87 116.26C1490.23 116.142 1496.56 117.309 1502.46 119.69C1507.58 121.784 1512.29 124.777 1516.36 128.53C1520.04 131.935 1523.09 135.968 1525.36 140.44C1527.4 144.367 1528.63 148.667 1528.97 153.08L1437.27 153.05Z" fill="#1E1E1E"/>
<path d="M1696.4 157.74L1669.32 151.24C1663.13 149.805 1657.26 147.235 1652 143.66C1647.18 140.327 1644.77 136.357 1644.77 131.75C1644.77 127.417 1647.18 123.687 1652 120.56C1656.82 117.433 1663.32 115.867 1671.49 115.86C1678.29 115.822 1685.02 117.305 1691.17 120.2C1697.3 123.08 1702.3 128.133 1706.17 135.36L1746.61 117.67C1742.59 108.947 1736.67 101.238 1729.28 95.11C1721.71 89.0314 1712.99 84.5481 1703.64 81.93C1692.83 78.9161 1681.65 77.4581 1670.43 77.6C1658 77.4468 1645.67 79.7791 1634.15 84.46C1623.19 89.0333 1614.52 95.41 1608.15 103.59C1601.78 111.77 1598.59 121.397 1598.58 132.47C1598.41 141.737 1600.99 150.847 1605.99 158.65C1610.95 166.263 1617.55 172.675 1625.3 177.42C1633.07 182.28 1641.62 185.762 1650.57 187.71L1672.23 192.4C1677.24 193.356 1682.19 194.622 1687.04 196.19C1691.46 197.548 1695.56 199.756 1699.13 202.69C1702.38 205.463 1704.01 209.253 1704 214.06C1704 220.8 1700.87 225.433 1694.62 227.96C1687.95 230.564 1680.84 231.851 1673.68 231.75C1664.29 231.75 1656.1 229.523 1649.13 225.07C1642.16 220.617 1636.61 214.06 1632.5 205.4L1590.26 223.81C1593.76 232.936 1599.04 241.279 1605.78 248.36C1612.76 255.82 1621.85 261.837 1633.04 266.41C1644.23 270.983 1657.77 273.27 1673.66 273.27C1688.1 273.27 1701.22 270.803 1713.01 265.87C1724.8 260.937 1734.19 253.957 1741.17 244.93C1748.15 235.897 1751.64 225.367 1751.64 213.34C1751.74 206.929 1750.57 200.562 1748.18 194.61C1745.79 188.659 1742.24 183.244 1737.74 178.68C1728.47 169.06 1714.69 162.08 1696.4 157.74Z" fill="#1E1E1E"/>
<path d="M1879 224.35C1875.5 225.458 1871.84 226.008 1868.17 225.98C1859.99 225.98 1854.09 223.873 1850.48 219.66C1846.87 215.447 1845.07 208.893 1845.1 200V123.81H1890.23V83.3701H1845.1V31.3701H1797.81V83.3701H1765.68V123.81H1797.81V208.65C1797.81 227.91 1803.23 243.013 1814.06 253.96C1824.89 264.907 1839.81 270.38 1858.82 270.38C1864.46 270.394 1870.08 269.852 1875.61 268.76C1881.07 267.659 1886.44 266.152 1891.68 264.25V218C1887.71 220.603 1883.46 222.734 1879 224.35Z" fill="#1E1E1E"/>
<path d="M134.863 21.1213L28.5857 97.4893C6.27278 113.523 1.18227 144.609 17.2157 166.922C33.2492 189.235 64.3351 194.325 86.6481 178.292L192.925 101.924C215.238 85.8901 220.329 54.8042 204.295 32.4913C188.262 10.1783 157.176 5.08782 134.863 21.1213Z" fill="#EA4335"/>
<path d="M200.413 35.2809C185.92 15.1118 157.821 10.5105 137.652 25.0034L31.3748 101.372C11.2057 115.864 6.60435 143.963 21.0973 164.132C35.5903 184.301 63.6891 188.903 83.8582 174.41L190.136 98.0418C210.305 83.5488 214.906 55.45 200.413 35.2809ZM208.177 29.7019C225.751 54.1587 220.171 88.2317 195.715 105.806L89.4372 182.174C64.9804 199.748 30.9073 194.168 13.3334 169.711C-4.24062 145.255 1.33905 111.182 25.7958 93.6076L132.073 17.2395C156.53 -0.334436 190.603 5.24518 208.177 29.7019Z" fill="#1E1E1E"/>
<path d="M86.651 97.4813C64.3381 81.4478 33.2522 86.5383 17.2187 108.851C1.1852 131.164 6.27571 162.25 28.5887 178.284L134.866 254.652C157.179 270.685 188.265 265.595 204.298 243.282C220.332 220.969 215.241 189.883 192.928 173.849L86.651 97.4813Z" fill="#4285F4"/>
<path d="M83.8621 101.363C63.693 86.8703 35.5942 91.4717 21.1012 111.641C6.60826 131.81 11.2096 159.909 31.3787 174.402L137.656 250.77C157.825 265.263 185.924 260.661 200.417 240.492C214.91 220.323 210.309 192.224 190.14 177.731L83.8621 101.363ZM195.719 169.967C220.175 187.541 225.755 221.615 208.181 246.071C190.607 270.528 156.534 276.108 132.077 258.534L25.7997 182.166C1.34296 164.592 -4.23671 130.519 13.3373 106.062C30.9112 81.6051 64.9843 76.0254 89.4411 93.5994L195.719 169.967Z" fill="#1E1E1E"/>
<path d="M391.663 97.5232L285.386 173.891C263.073 189.925 257.982 221.011 274.016 243.324C290.049 265.636 321.135 270.727 343.448 254.694L449.725 178.325C472.038 162.292 477.129 131.206 461.095 108.893C445.062 86.5802 413.976 81.4897 391.663 97.5232Z" fill="#F9AB00"/>
<path d="M457.213 111.683C442.72 91.5134 414.621 86.9121 394.452 101.405L288.175 177.773C268.006 192.266 263.404 220.365 277.897 240.534C292.39 260.703 320.489 265.304 340.658 250.811L446.935 174.443C467.104 159.95 471.706 131.852 457.213 111.683ZM464.977 106.104C482.551 130.56 476.971 164.633 452.514 182.207L346.237 258.575C321.78 276.149 287.707 270.57 270.133 246.113C252.559 221.656 258.139 187.583 282.596 170.009L388.873 93.6411C413.33 76.0672 447.403 81.6468 464.977 106.104Z" fill="#1E1E1E"/>
<path d="M343.44 21.0816C321.127 5.04817 290.041 10.1387 274.008 32.4516C257.974 54.7646 263.065 85.8505 285.378 101.884L391.655 178.252C413.968 194.285 445.054 189.195 461.087 166.882C477.121 144.569 472.03 113.483 449.717 97.4497L343.44 21.0816Z" fill="#34A853"/>
<path d="M340.65 24.9637C320.481 10.4707 292.382 15.072 277.889 35.2411C263.396 55.4103 267.998 83.509 288.167 98.002L394.444 174.37C414.613 188.863 442.712 184.262 457.205 164.093C471.698 143.924 467.097 115.825 446.928 101.332L340.65 24.9637ZM452.507 93.5678C476.963 111.142 482.543 145.215 464.969 169.672C447.395 194.128 413.322 199.708 388.865 182.134L282.588 105.766C258.131 88.192 252.551 54.119 270.125 29.6622C287.699 5.20539 321.772 -0.374279 346.229 17.1997L452.507 93.5678Z" fill="#1E1E1E"/>
</svg>
