<svg width="2411" height="283" viewBox="0 0 2411 283" fill="none" xmlns="http://www.w3.org/2000/svg">
<path d="M711.61 25.43C691.75 14.4767 668.103 9 640.67 9H553.3V267.49H640.67C668.103 267.49 691.75 262.077 711.61 251.25C730.997 240.875 746.932 225.064 757.46 205.76C768.127 186.26 773.48 163.757 773.52 138.25C773.56 112.743 768.207 90.3 757.46 70.92C746.863 51.6672 730.946 35.8743 711.61 25.43ZM714.86 181.93C708.555 194.376 698.517 204.54 686.15 211C673.383 217.853 657.5 221.28 638.5 221.28H602V55.21H638.5C657.506 55.21 673.39 58.64 686.15 65.5C698.477 71.9255 708.507 82.0156 714.86 94.38C721.226 106.78 724.413 121.403 724.42 138.25C724.42 154.85 721.233 169.41 714.86 181.93Z" fill="#1E1E1E"/>
<path d="M941.4 90.2301C927.914 81.8101 911.304 77.6001 891.57 77.6001C873.277 77.6001 857.034 82.1101 842.84 91.1301C828.753 100.032 817.19 112.404 809.26 127.06C801.082 141.991 796.861 158.767 797 175.79C797 194.597 801.147 211.333 809.44 226C817.515 240.453 829.373 252.435 843.74 260.66C858.3 269.08 874.847 273.29 893.38 273.29C913.834 273.29 931.044 268.897 945.01 260.11C959.135 251.149 970.798 238.802 978.94 224.19L940.67 205.4C936.256 212.956 930.081 219.334 922.67 223.99C914.97 228.93 905.464 231.397 894.15 231.39C884.99 231.514 875.961 229.209 867.98 224.71C860.034 220.138 853.576 213.371 849.38 205.22C846.398 199.398 844.427 193.112 843.55 186.63H981.55C981.79 185.42 982.03 183.44 982.27 180.63C982.51 177.82 982.63 174.55 982.63 170.7C982.63 153.613 979.14 138.03 972.16 123.95C965.294 110.033 954.63 98.3427 941.4 90.2301ZM845.34 153.05C846.256 149.756 847.471 146.553 848.97 143.48C852.991 135.308 859.171 128.391 866.84 123.48C874.33 118.691 883.051 116.183 891.94 116.26C898.304 116.144 904.627 117.31 910.53 119.69C915.653 121.786 920.36 124.78 924.43 128.53C928.116 131.932 931.164 135.965 933.43 140.44C935.482 144.364 936.711 148.665 937.04 153.08L845.34 153.05Z" fill="#1E1E1E"/>
<path d="M1087.11 203.23H1084.22L1037.65 83.3701H983.85L1061.84 267.49H1108.77L1187.47 83.3701H1134.4L1087.11 203.23Z" fill="#1E1E1E"/>
<path d="M1210.75 267.49H1259.49V164.24H1363.11V118.03H1259.49V55.21H1374.66V9H1210.75V267.49Z" fill="#1E1E1E"/>
<path d="M1533.33 90.2301C1519.85 81.8101 1503.24 77.6001 1483.51 77.6001C1465.21 77.6001 1448.96 82.1101 1434.77 91.1301C1420.69 100.035 1409.12 112.406 1401.19 127.06C1393.01 141.99 1388.78 158.766 1388.92 175.79C1388.92 194.57 1393.07 211.3 1401.37 225.98C1409.45 240.429 1421.31 252.409 1435.67 260.64C1450.23 269.06 1466.78 273.27 1485.31 273.27C1505.77 273.27 1522.98 268.877 1536.94 260.09C1551.07 251.126 1562.73 238.78 1570.88 224.17L1532.61 205.4C1528.18 212.964 1521.98 219.345 1514.55 224C1506.85 228.94 1497.34 231.407 1486.03 231.4C1476.87 231.523 1467.84 229.219 1459.86 224.72C1451.92 220.145 1445.46 213.378 1441.27 205.23C1438.28 199.409 1436.31 193.123 1435.43 186.64H1573.43C1573.67 185.43 1573.91 183.45 1574.15 180.64C1574.39 177.83 1574.52 174.56 1574.52 170.71C1574.52 153.623 1571.03 138.04 1564.04 123.96C1557.19 110.046 1546.54 98.3527 1533.33 90.2301ZM1437.27 153.05C1438.18 149.754 1439.4 146.551 1440.91 143.48C1444.93 135.306 1451.11 128.389 1458.78 123.48C1466.27 118.69 1474.98 116.182 1483.87 116.26C1490.23 116.143 1496.56 117.309 1502.46 119.69C1507.58 121.784 1512.29 124.777 1516.36 128.53C1520.04 131.935 1523.09 135.968 1525.36 140.44C1527.4 144.367 1528.63 148.667 1528.97 153.08L1437.27 153.05Z" fill="#1E1E1E"/>
<path d="M1696.4 157.74L1669.33 151.24C1663.13 149.807 1657.26 147.237 1652 143.66C1647.18 140.327 1644.77 136.357 1644.78 131.75C1644.78 127.417 1647.19 123.687 1652 120.56C1656.81 117.433 1663.31 115.867 1671.49 115.86C1678.29 115.822 1685.02 117.305 1691.17 120.2C1697.3 123.08 1702.3 128.133 1706.17 135.36L1746.6 117.67C1742.59 108.946 1736.67 101.236 1729.28 95.11C1721.71 89.0314 1712.99 84.5481 1703.64 81.93C1692.83 78.9161 1681.65 77.4581 1670.43 77.6C1658 77.4457 1645.66 79.7781 1634.15 84.46C1623.19 89.0333 1614.52 95.41 1608.15 103.59C1601.78 111.77 1598.59 121.397 1598.59 132.47C1598.41 141.736 1600.99 150.846 1605.99 158.65C1610.95 166.263 1617.55 172.675 1625.3 177.42C1633.07 182.28 1641.62 185.762 1650.57 187.71L1672.23 192.4C1677.24 193.356 1682.19 194.622 1687.04 196.19C1691.46 197.548 1695.56 199.756 1699.13 202.69C1702.38 205.463 1704.01 209.253 1704 214.06C1704 220.8 1700.87 225.433 1694.62 227.96C1687.95 230.563 1680.84 231.85 1673.68 231.75C1664.29 231.75 1656.1 229.523 1649.13 225.07C1642.16 220.617 1636.61 214.06 1632.5 205.4L1590.26 223.81C1593.76 232.938 1599.04 241.282 1605.79 248.36C1612.76 255.82 1621.84 261.837 1633.04 266.41C1644.24 270.983 1657.78 273.27 1673.66 273.27C1688.1 273.27 1701.22 270.803 1713.01 265.87C1724.8 260.937 1734.19 253.957 1741.17 244.93C1748.15 235.897 1751.64 225.367 1751.64 213.34C1751.74 206.929 1750.57 200.562 1748.18 194.61C1745.79 188.659 1742.24 183.244 1737.74 178.68C1728.47 169.06 1714.69 162.08 1696.4 157.74Z" fill="#1E1E1E"/>
<path d="M1879 224.35C1875.5 225.458 1871.84 226.008 1868.17 225.98C1859.99 225.98 1854.09 223.873 1850.48 219.66C1846.87 215.447 1845.07 208.893 1845.1 200V123.81H1890.23V83.3701H1845.1V31.3701H1797.81V83.3701H1765.68V123.81H1797.81V208.65C1797.81 227.91 1803.23 243.013 1814.06 253.96C1824.89 264.907 1839.81 270.38 1858.82 270.38C1864.46 270.394 1870.08 269.852 1875.61 268.76C1881.07 267.659 1886.44 266.152 1891.68 264.25V218C1887.71 220.603 1883.46 222.734 1879 224.35Z" fill="#1E1E1E"/>
<path d="M2276.81 9.27002H2091.05C2019.58 9.27002 1961.64 67.2088 1961.64 138.68V138.69C1961.64 210.161 2019.58 268.1 2091.05 268.1H2276.81C2348.28 268.1 2406.22 210.161 2406.22 138.69V138.68C2406.22 67.2088 2348.28 9.27002 2276.81 9.27002Z" fill="white"/>
<path d="M2401.44 138.68C2401.44 69.8489 2345.64 14.0503 2276.81 14.0503H2091.05C2022.22 14.0503 1966.42 69.8489 1966.42 138.68V138.69C1966.42 207.521 2022.22 263.32 2091.05 263.32H2276.81C2345.64 263.32 2401.44 207.521 2401.44 138.69V138.68ZM2411 138.69C2411 212.801 2350.92 272.88 2276.81 272.88H2091.05C2016.94 272.88 1956.86 212.801 1956.86 138.69V138.68C1956.86 64.5691 2016.94 4.48975 2091.05 4.48975H2276.81C2350.92 4.48975 2411 64.5691 2411 138.68V138.69Z" fill="#1E1E1E"/>
<path d="M134.863 21.1213L28.5857 97.4893C6.27278 113.523 1.18227 144.609 17.2157 166.922C33.2492 189.235 64.3351 194.325 86.6481 178.292L192.925 101.924C215.238 85.8901 220.329 54.8042 204.295 32.4913C188.262 10.1783 157.176 5.08782 134.863 21.1213Z" fill="#EA4335"/>
<path d="M200.413 35.2809C185.92 15.1118 157.821 10.5105 137.652 25.0034L31.3748 101.372C11.2057 115.864 6.60435 143.963 21.0973 164.132C35.5903 184.301 63.6891 188.903 83.8582 174.41L190.136 98.0418C210.305 83.5488 214.906 55.45 200.413 35.2809ZM208.177 29.7019C225.751 54.1587 220.171 88.2317 195.715 105.806L89.4372 182.174C64.9804 199.748 30.9073 194.168 13.3334 169.711C-4.24062 145.255 1.33905 111.182 25.7958 93.6076L132.073 17.2395C156.53 -0.334436 190.603 5.24518 208.177 29.7019Z" fill="#1E1E1E"/>
<path d="M86.651 97.4813C64.3381 81.4478 33.2522 86.5383 17.2187 108.851C1.1852 131.164 6.27571 162.25 28.5887 178.284L134.866 254.652C157.179 270.685 188.265 265.595 204.298 243.282C220.332 220.969 215.241 189.883 192.928 173.849L86.651 97.4813Z" fill="#4285F4"/>
<path d="M83.8621 101.363C63.693 86.8703 35.5942 91.4717 21.1012 111.641C6.60826 131.81 11.2096 159.909 31.3787 174.402L137.656 250.77C157.825 265.263 185.924 260.661 200.417 240.492C214.91 220.323 210.309 192.224 190.14 177.731L83.8621 101.363ZM195.719 169.967C220.175 187.541 225.755 221.615 208.181 246.071C190.607 270.528 156.534 276.108 132.077 258.534L25.7997 182.166C1.34296 164.592 -4.23671 130.519 13.3373 106.062C30.9112 81.6051 64.9843 76.0254 89.4411 93.5994L195.719 169.967Z" fill="#1E1E1E"/>
<path d="M391.663 97.5232L285.386 173.891C263.073 189.925 257.982 221.011 274.016 243.324C290.049 265.636 321.135 270.727 343.448 254.694L449.725 178.325C472.038 162.292 477.129 131.206 461.095 108.893C445.062 86.5802 413.976 81.4897 391.663 97.5232Z" fill="#F9AB00"/>
<path d="M457.213 111.683C442.72 91.5134 414.621 86.9121 394.452 101.405L288.175 177.773C268.006 192.266 263.404 220.365 277.897 240.534C292.39 260.703 320.489 265.304 340.658 250.811L446.935 174.443C467.104 159.95 471.706 131.852 457.213 111.683ZM464.977 106.104C482.551 130.56 476.971 164.633 452.514 182.207L346.237 258.575C321.78 276.149 287.707 270.57 270.133 246.113C252.559 221.656 258.139 187.583 282.596 170.009L388.873 93.6411C413.33 76.0672 447.403 81.6468 464.977 106.104Z" fill="#1E1E1E"/>
<path d="M341.89 21.8298C319.635 5.89365 288.674 11.0166 272.738 33.2723C256.802 55.528 261.925 86.4886 284.18 102.425L390.185 178.329C412.441 194.266 443.401 189.143 459.338 166.887C475.274 144.631 470.151 113.671 447.895 97.7344L341.89 21.8298Z" fill="#34A853"/>
<path d="M339.118 25.7018C319.001 11.2968 291.015 15.9272 276.61 36.0443C262.205 56.1616 266.836 84.1485 286.953 98.5536L392.957 174.458C413.075 188.863 441.061 184.231 455.466 164.114C469.871 143.997 465.24 116.011 445.123 101.606L339.118 25.7018ZM450.668 93.8623C475.062 111.33 480.677 145.265 463.21 169.659C445.742 194.053 411.807 199.668 387.413 182.201L281.409 106.297C257.015 88.8293 251.399 54.8939 268.867 30.4998C286.334 6.10608 320.27 0.490664 344.663 17.9579L450.668 93.8623Z" fill="#1E1E1E"/>
<path d="M2061.8 179.2V169.58C2062.03 169.36 2062.71 168.58 2063.8 167.37L2068.1 162.62C2069.84 160.7 2071.7 158.62 2073.7 156.4L2079.76 149.66C2081.76 147.4 2083.68 145.32 2085.42 143.44C2087.16 141.56 2088.55 140.04 2089.61 138.91C2092.59 135.793 2095.23 132.359 2097.47 128.67C2099.14 125.798 2100.02 122.533 2100.02 119.21C2100.04 116.788 2099.4 114.407 2098.17 112.323C2096.94 110.239 2095.15 108.533 2093.02 107.39C2090.64 106.103 2087.96 105.459 2085.26 105.52C2082.71 105.459 2080.19 106.084 2077.96 107.33C2076 108.433 2074.3 109.935 2072.96 111.74C2071.82 113.263 2071 114.997 2070.53 116.84L2061.82 113.33C2062.39 111.476 2063.21 109.707 2064.25 108.07C2065.54 105.988 2067.13 104.099 2068.95 102.46C2071.04 100.568 2073.45 99.0735 2076.08 98.0501C2079.15 96.8682 2082.41 96.291 2085.7 96.3501C2090.25 96.2139 2094.76 97.3497 2098.7 99.6301C2102.15 101.687 2105.01 104.592 2107.02 108.07C2108.95 111.413 2109.97 115.208 2109.96 119.07C2109.96 122.518 2109.22 125.926 2107.81 129.07C2106.41 132.254 2104.66 135.272 2102.6 138.07C2100.79 140.551 2098.83 142.913 2096.72 145.14C2095.72 146.14 2094.4 147.54 2092.72 149.39L2087.23 155.39C2085.27 157.543 2083.35 159.637 2081.46 161.67L2076.53 166.99C2075.14 168.5 2074.17 169.52 2073.65 170.04H2110.65V179.21L2061.8 179.2Z" fill="#1E1E1E"/>
<path d="M2152.46 181C2147.98 181.073 2143.56 179.94 2139.67 177.72C2135.81 175.46 2132.49 172.39 2129.94 168.72C2127.11 164.62 2125 160.064 2123.71 155.25C2120.84 144.42 2120.84 133.03 2123.71 122.2C2125.01 117.371 2127.11 112.796 2129.94 108.67C2132.47 104.982 2135.8 101.907 2139.67 99.6701C2143.57 97.4849 2147.99 96.3706 2152.46 96.4401C2156.95 96.3742 2161.38 97.4879 2165.31 99.6701C2169.21 101.895 2172.55 104.972 2175.1 108.67C2177.93 112.794 2180.03 117.369 2181.32 122.2C2184.19 133.03 2184.19 144.42 2181.32 155.25C2180.04 160.065 2177.93 164.622 2175.1 168.72C2172.53 172.399 2169.19 175.471 2165.31 177.72C2161.39 179.936 2156.96 181.068 2152.46 181ZM2152.46 171.84C2156.67 171.904 2160.73 170.317 2163.78 167.42C2167.18 164.115 2169.69 160.009 2171.08 155.48C2172.84 150.054 2173.7 144.375 2173.63 138.67C2173.71 132.948 2172.85 127.251 2171.08 121.81C2169.67 117.301 2167.16 113.214 2163.78 109.92C2160.73 107.025 2156.66 105.442 2152.46 105.51C2148.27 105.435 2144.22 107.021 2141.2 109.92C2137.84 113.227 2135.36 117.311 2133.96 121.81C2132.19 127.251 2131.33 132.948 2131.41 138.67C2131.33 144.375 2132.2 150.054 2133.96 155.48C2135.35 159.999 2137.83 164.102 2141.2 167.42C2144.22 170.326 2148.27 171.918 2152.46 171.85V171.84Z" fill="#1E1E1E"/>
<path d="M2192.75 179.2V169.58C2192.98 169.36 2193.66 168.58 2194.75 167.37L2199.05 162.62L2204.66 156.4C2206.66 154.167 2208.68 151.92 2210.71 149.66C2212.71 147.4 2214.63 145.32 2216.37 143.44C2218.11 141.56 2219.5 140.04 2220.56 138.91C2223.55 135.796 2226.18 132.362 2228.42 128.67C2230.09 125.798 2230.97 122.533 2230.97 119.21C2230.99 116.788 2230.35 114.407 2229.12 112.323C2227.89 110.239 2226.1 108.533 2223.97 107.39C2221.59 106.105 2218.92 105.46 2216.22 105.52C2213.67 105.456 2211.15 106.081 2208.92 107.33C2206.96 108.426 2205.25 109.93 2203.92 111.74C2202.78 113.261 2201.95 114.994 2201.48 116.84L2192.77 113.33C2193.34 111.476 2194.16 109.707 2195.2 108.07C2196.5 105.99 2198.08 104.101 2199.9 102.46C2201.99 100.57 2204.41 99.0758 2207.03 98.05C2210.1 96.8681 2213.36 96.2909 2216.65 96.35C2221.2 96.2128 2225.71 97.3487 2229.65 99.63C2233.1 101.683 2235.97 104.59 2237.97 108.07C2239.9 111.413 2240.92 115.208 2240.91 119.07C2240.91 122.518 2240.17 125.926 2238.76 129.07C2237.37 132.256 2235.62 135.274 2233.55 138.07C2231.74 140.551 2229.78 142.913 2227.67 145.14C2226.67 146.14 2225.35 147.54 2223.67 149.39L2218.18 155.39C2216.22 157.543 2214.3 159.637 2212.41 161.67L2207.49 166.99C2206.09 168.5 2205.13 169.52 2204.6 170.04H2241.6V179.21L2192.75 179.2Z" fill="#1E1E1E"/>
<path d="M2279.11 181C2275.45 180.961 2271.83 180.193 2268.47 178.74C2264.76 177.168 2261.45 174.774 2258.8 171.74C2255.81 168.265 2253.73 164.104 2252.74 159.63L2261.23 156.24C2262.25 160.511 2264.45 164.411 2267.57 167.5C2269.05 168.934 2270.81 170.059 2272.73 170.807C2274.65 171.556 2276.71 171.914 2278.77 171.86C2281.08 171.947 2283.39 171.565 2285.55 170.737C2287.71 169.908 2289.68 168.651 2291.34 167.04C2292.96 165.42 2294.23 163.483 2295.06 161.351C2295.9 159.22 2296.29 156.938 2296.2 154.65C2296.25 151.517 2295.51 148.421 2294.05 145.65C2292.66 143.048 2290.56 140.889 2288 139.42C2285.26 137.875 2282.15 137.094 2279 137.16C2276.21 137.175 2273.47 137.861 2271 139.16C2268.56 140.376 2266.46 142.184 2264.89 144.42L2255.16 140.57L2260.48 98.24H2300.88V107.41H2268.29L2265 133.25L2265.56 133.36C2267.53 131.761 2269.75 130.501 2272.13 129.63C2275.6 128.398 2279.3 127.932 2282.98 128.263C2286.65 128.594 2290.2 129.716 2293.4 131.55C2297.23 133.793 2300.41 136.991 2302.63 140.83C2306.19 146.967 2307.18 154.263 2305.37 161.124C2303.57 167.986 2299.13 173.855 2293.01 177.45C2288.78 179.87 2283.98 181.097 2279.11 181Z" fill="#1E1E1E"/>
</svg>
